<?xml version="1.0" encoding="UTF-8" standalone="no"?>
<svg
   width="600"
   height="700.722"
   version="1.1"
   id="svg95"
   sodipodi:docname="Arms_of_France_(France_Moderne).svg"
   inkscape:version="1.2.2 (b0a84865, 2022-12-01)"
   xmlns:inkscape="http://www.inkscape.org/namespaces/inkscape"
   xmlns:sodipodi="http://sodipodi.sourceforge.net/DTD/sodipodi-0.dtd"
   xmlns="http://www.w3.org/2000/svg"
   xmlns:svg="http://www.w3.org/2000/svg">
  <defs
     id="defs99" />
  <sodipodi:namedview
     id="namedview97"
     pagecolor="#ffffff"
     bordercolor="#000000"
     borderopacity="0.25"
     inkscape:showpageshadow="2"
     inkscape:pageopacity="0.0"
     inkscape:pagecheckerboard="0"
     inkscape:deskcolor="#d1d1d1"
     showgrid="false"
     inkscape:zoom="3.2759304"
     inkscape:cx="216.1218"
     inkscape:cy="675.53327"
     inkscape:window-width="1470"
     inkscape:window-height="822"
     inkscape:window-x="0"
     inkscape:window-y="37"
     inkscape:window-maximized="1"
     inkscape:current-layer="g93" />
  <g
     transform="translate(-421.57437,188.27525)"
     id="g93">
    <path
       d="m 424.18631,-186.81058 c -1.57584,99.31616 -1.48283,198.645969 0,297.95899 1.42864,95.68555 6.20171,170.35514 49.06819,228.74083 51.63693,70.33138 137.66196,121.0857 248.31995,170.95067 110.65784,-49.86497 196.68288,-100.61929 248.31979,-170.95067 42.86646,-58.38569 47.63956,-133.05528 49.06816,-228.74083 1.4829,-99.313021 1.5759,-198.64283 0,-297.95899 z"
       fill="#1353b4"
       stroke="#540"
       stroke-width="2.929"
       id="path9"
       style="stroke:#001655;stroke-opacity:1" />
    <g
       transform="matrix(1.4646696,0,0,1.4646696,-195.89282,-228.62432)"
       id="g91">
      <path
         d="m 523.14665,62.145422 c -0.0685,0 -3.64149,12.072202 -9.44532,15.744141 -1.75686,1.110555 -6.16349,3.916256 -11.875,7.408203 -5.29757,3.237261 -8.95421,8.871783 -10.07617,12.314453 -1.18058,3.620071 -2.01985,7.403241 -1.97265,11.849611 0.0291,2.61222 0.16257,7.50327 2.11914,12.30859 1.45482,3.57149 3.97733,7.05301 5.79296,9.5586 -0.82581,-0.56349 -1.64598,-1.08718 -2.4375,-1.51368 -3.82236,-2.05928 -22.51207,-4.46841 -32.13671,3.81641 -3.68543,3.17242 -8.44867,9.53836 -10.03125,14.29492 -2.72845,8.19404 -0.56909,15.02597 -0.0156,17.13868 1.61266,6.15759 7.07372,13.47518 12.13476,17.33593 5.11446,3.90224 20.22461,6.9336 20.22461,6.9336 0,0 -4.21546,-7.3818 -4.62109,-10.97852 -0.29307,-2.58991 0.50464,-7.52583 1.73242,-9.82422 1.34034,-2.50796 5.24939,-3.34893 8.08984,-3.46875 2.88247,-0.1219 6.57989,2.74197 8.08985,5.20118 4.46764,7.27695 4.94942,23.29246 4.04687,31.7832 -0.71322,6.70535 -3.54861,11.20388 -6.35742,17.33398 -2.36583,5.16322 -11.55859,16.75977 -11.55859,16.75977 0,0 16.73235,-2.42019 21.96093,-6.93555 0.83172,-0.71793 1.707,-1.46747 2.57618,-2.31055 -1.66534,4.72278 -2.82823,9.84386 -1.97657,14.6211 2.23512,12.52786 15.73634,23.59961 15.73634,23.59961 0,0 13.50081,-11.07318 15.73437,-23.60156 0.86236,-4.84002 -0.3008,-10.03263 -1.95703,-14.80665 0.9326,0.92289 1.87586,1.72665 2.76953,2.49805 5.22858,4.51536 21.95898,6.93555 21.95898,6.93555 0,0 -9.19082,-11.59655 -11.55664,-16.75977 -2.80881,-6.1301 -5.6442,-10.62863 -6.35743,-17.33398 -0.90255,-8.49074 -0.42323,-24.50625 4.04493,-31.7832 1.50995,-2.45921 5.2079,-5.32308 8.08985,-5.20118 2.84097,0.11982 6.75042,0.96079 8.09179,3.46875 1.2283,2.29839 2.02549,7.23431 1.73243,9.82422 -0.40666,3.59672 -4.62305,10.97852 -4.62305,10.97852 0,0 15.11209,-3.03136 20.22655,-6.9336 5.06105,-3.86075 10.52264,-11.17834 12.13478,-17.33593 0.55397,-2.11271 2.71473,-8.94464 -0.0137,-17.13868 -1.58259,-4.75656 -6.34674,-11.1225 -10.03321,-14.29492 -9.62516,-8.28482 -28.31592,-5.87569 -32.13672,-3.81641 -0.79271,0.42711 -1.61434,0.95116 -2.4414,1.51563 1.81574,-2.50562 4.33921,-5.98789 5.79491,-9.56055 1.95658,-4.8048 2.09166,-9.69585 2.11914,-12.30859 0.0488,-4.44741 -0.79207,-8.23045 -1.97265,-11.851564 -1.12146,-3.44163 -4.77808,-9.07472 -10.07617,-12.3125 -5.7115,-3.490909 -10.32856,-6.297648 -12.08595,-7.408203 -5.80381,-3.670383 -9.37487,-15.744141 -9.44335,-15.744141 z"
         fill="#ffe24b"
         id="path11" />
      <path
         d="m 559.28052,235.18945 -4.40799,-0.0705 -12.21872,-4.11968 m 16.62671,4.19022 c 0,0 -11.40796,-7.58819 -15.3351,-11.8971 -2.80881,-3.0801 -5.6726,-7.94818 -7.51402,-11.68859 -3.17398,-6.44288 -8.07059,-22.54204 -8.07059,-22.54204 l -6.95692,-0.55554 -3.60658,0.54154 c -0.17117,0.10996 -5.06778,16.20757 -8.24124,22.65201 -1.84194,3.73989 -4.70573,8.60797 -7.51454,11.68806 -3.92714,4.30788 -15.30554,11.96661 -15.30554,11.96661 l 6.42577,-0.43623 9.68066,-3.22741 7.32281,-5.4147 4.56584,-11.7433 1.10713,-8.69884 14.86711,0.15816 0.31632,5.69379 6.01011,15.18343 3.00505,2.84689 2.61702,1.28304"
         fill="#ddad00"
         id="path13" />
      <path
         d="m 485.38688,148.50675 c -1.92998,0.0161 -3.86619,0.29762 -5.40234,0.79688 -4.47854,1.45653 -7.09339,3.88176 -9.23047,8.07812 -1.41296,2.77561 -2.93001,9.25549 -2.3086,12.3086 0.82371,4.05216 2.65377,9.58381 5.38477,12.6914 2.56034,2.9141 11.1543,6.53906 11.1543,6.53906 -5.67626,-10.56739 -6.3849,-21.66993 4.18945,-24.02734 l 5.81836,0.86133 4.95703,6.68164 3.01758,10.34375 v 6.67969 l -0.43164,15.94531 0.14258,0.4375 5.76953,-9.61523 c 0,0 0.32666,-8.76761 0.38476,-11.53907 0.0648,-3.11485 -1.57669,-12.35602 -2.30859,-15.38476 -1.18629,-4.91477 -3.0266,-9.48504 -6.15234,-13.46094 -2.07329,-2.63712 -6.47082,-5.37041 -9.61524,-6.53906 -1.51385,-0.56358 -3.43916,-0.81296 -5.36914,-0.79688 z m 75.75391,0.0176 c -1.92966,-0.0159 -3.85503,0.23356 -5.36914,0.79688 -3.14389,1.16917 -7.543,3.90194 -9.61524,6.53906 -3.12626,3.9759 -4.96802,8.54709 -6.1543,13.46289 -0.73138,3.02823 -2.37148,12.2694 -2.30664,15.38476 0.0586,2.77146 0.38477,11.53907 0.38477,11.53907 l 5.76953,9.61523 0.14258,-0.4375 -0.43164,-15.94531 v -6.67969 l 3.01758,-10.34375 4.95507,-6.68164 5.81836,-0.85937 c 10.85696,2.07445 9.02242,15.29393 4.18946,24.02343 0,0 8.59446,-3.62496 11.15429,-6.53906 2.72997,-3.10707 4.56002,-8.64017 5.38477,-12.69336 0.62141,-3.05312 -0.89407,-9.53051 -2.30859,-12.30664 -2.13656,-4.19584 -4.75297,-6.62159 -9.23047,-8.07812 -1.53616,-0.49978 -3.47073,-0.78099 -5.40039,-0.79688 z"
         fill="#ddad00"
         id="path15" />
      <path
         d="m 502.76482,202.04707 c 0.90255,-8.49074 0.42223,-24.50536 -4.04541,-31.78232 -1.50996,-2.4592 -5.20783,-5.32299 -8.0903,-5.20109 -2.84045,0.11982 -6.74944,0.95961 -8.08978,3.46757 -1.22778,2.29839 -2.02608,7.23443 -1.73301,9.82434 0.40563,3.59672 4.62222,10.98002 4.62222,10.98002 0,0 -15.11051,-3.03237 -20.22497,-6.93461 -5.06104,-3.86075 -10.52305,-11.17869 -12.13571,-17.33628 -0.55346,-2.11271 -2.71285,-8.94462 0.0156,-17.13866 1.58258,-4.75656 6.34588,-11.12267 10.03131,-14.29509 9.62464,-8.28482 28.31579,-5.87542 32.13815,-3.81614 5.05482,2.72374 11.21552,8.51564 13.29036,13.86819 1.61162,4.1559 4.96093,16.42128 5.77893,20.80282 1.67024,8.94098 2.15523,12.31414 2.88869,21.38065 0.50366,6.22295 1.89328,11.81048 0.57784,17.91361 -0.70856,3.28809 -1.59296,10.8353 -3.51477,15.80505 -1.93115,4.99568 -4.90439,7.41183 -7.4637,9.62101 -5.22858,4.51536 -21.95953,6.93462 -21.95953,6.93462 0,0 9.19203,-11.59522 11.55786,-16.75844 2.80881,-6.1301 5.64304,-10.6299 6.35626,-17.33525 z"
         fill="none"
         stroke="#540"
         stroke-width="1.2"
         id="path17" />
      <path
         d="m 543.73877,202.04707 c -0.90255,-8.49074 -0.42275,-24.50536 4.04541,-31.78232 1.50996,-2.4592 5.20783,-5.32299 8.08978,-5.20109 2.84097,0.11982 6.74996,0.95961 8.09134,3.46757 1.2283,2.29839 2.02607,7.23443 1.733,9.82434 -0.40666,3.59672 -4.62325,10.98002 -4.62325,10.98002 0,0 15.11051,-3.03237 20.22497,-6.93461 5.06104,-3.86075 10.52305,-11.17869 12.13519,-17.33628 0.55398,-2.11271 2.71441,-8.94462 -0.014,-17.13866 -1.58258,-4.75656 -6.34588,-11.12267 -10.03235,-14.29509 -9.62516,-8.28482 -28.31579,-5.87542 -32.13659,-3.81614 -5.05534,2.72374 -11.21604,8.51564 -13.29088,13.86819 -1.61163,4.1559 -4.96093,16.42128 -5.77997,20.80282 -1.66972,8.94098 -2.15523,12.31414 -2.88921,21.38065 -0.50314,6.22295 -1.89276,11.81048 -0.57732,17.91361 0.70856,3.28809 1.59296,10.8353 3.51477,15.80505 1.93115,4.99568 4.90439,7.41183 7.4637,9.62101 5.22858,4.51536 21.95953,6.93462 21.95953,6.93462 0,0 -9.19203,-11.59522 -11.55786,-16.75844 -2.80881,-6.1301 -5.64304,-10.6299 -6.35626,-17.33525 z"
         fill="none"
         stroke="#540"
         stroke-width="1.2"
         id="path19" />
      <path
         d="M 523.14567,265.11629 523.12855,63.790397"
         fill="none"
         stroke="#9e7500"
         stroke-width="1.2"
         id="path21" />
      <path
         d="m 539.22282,82.233313 c 0,0 6.10494,6.863029 10.10937,13.318359 2.15057,3.46601 2.12233,7.716908 2.16797,8.697268 0.19037,4.1865 -0.12786,6.12874 -1.26953,10.16015 -1.05661,3.73107 -3.29525,7.82139 -5.50391,11.00782 -2.4758,3.57027 -6.90293,7.56986 -8.89062,11.43164 -2.8503,5.53826 -4.77269,13.77664 -5.92578,19.89844 -1.41659,7.51401 -1.61145,17.77214 -2.11719,25.40234 -0.51301,7.74121 -1.8846,18.09326 -1.27148,25.82617 0.39059,4.9158 2.51776,11.8101 3.38867,16.08789 0.60171,2.95871 2.15522,6.74377 2.53906,9.73828 0.3714,2.89802 0.39733,6.84193 0,9.73633 -0.4492,3.26734 -1.70398,7.53904 -2.96289,10.58594 -1.3917,3.36278 -5.92969,10.58203 -5.92969,10.58203 l 11.00781,-12.27734 3.87914,-8.51662 -0.0188,-9.94405 -3.43654,-12.02175 -4.18177,-10.47648 -0.47448,-16.1954 1.69336,-16.51172 2.11719,-18.20508 4.65625,-14.39453 7.62109,-10.58593 6.34961,-11.00782 2.54102,-5.92578 1.26953,-10.58398 -1.69141,-10.162114 -5.36133,-8.589844 z m -49.11328,33.869137 c 0,0 0.7126,0.63672 0.92968,0.82618 l -0.11132,-0.51758 z m 0.92968,0.82618 0.86133,4.01562 3.88672,6.47852 3.88672,7.12695 6.47852,10.04102 4.21093,10.68945 2.26758,11.33594 1.94336,15.54883 0.97266,15.54687 V 212.288 l -3.56446,7.44922 -4.21093,11.33594 -0.70286,9.39453 1.66965,5.60938 c 0,0 0.25698,-6.56997 0.84571,-9.31446 0.81749,-3.8094 2.86343,-8.63082 4.23437,-12.27734 1.30248,-3.46653 3.88804,-7.80755 4.65625,-11.42969 1.68788,-7.95544 1.32176,-18.97739 0.84766,-27.0957 -0.35168,-6.0248 -2.11624,-13.92435 -2.96485,-19.90039 -0.66706,-4.69483 -1.91462,-12.00363 -3.38672,-16.51172 -1.57169,-4.80792 -4.14305,-10.94427 -6.77343,-15.26563 -2.23511,-3.67194 -5.26205,-7.28543 -8.04492,-10.56055 -1.84151,-2.16721 -5.82847,-5.67165 -7.11329,-6.79296 z"
         fill="#ddad00"
         id="path23" />
      <path
         d="m 523.14644,265.11551 c 0,0 13.49991,-11.07287 15.73451,-23.60125 2.00844,-11.26894 -6.93929,-24.46852 -7.61776,-29.77699 -2.71232,-21.22919 3.03601,-49.50919 3.55316,-51.82159 2.05823,-9.1827 4.64867,-13.11192 6.02739,-16.11784 0.99229,-2.16405 3.82911,-6.4683 6.66385,-10.64131 1.62771,-2.39436 5.25141,-6.85214 7.09853,-11.38669 1.95657,-4.80532 2.09144,-9.69622 2.11997,-12.30844 0.0477,-4.44793 -0.79259,-8.22983 -1.97265,-11.85146 -1.12145,-3.44163 -4.77835,-9.075324 -10.07488,-12.313104 -5.7115,-3.490391 -10.32957,-6.296086 -12.08643,-7.40716 -5.80487,-3.670383 -9.44569,-15.744366 -9.44569,-15.744366 2.1e-4,1.12e-4 -3.64134,12.072946 -9.44465,15.744366 -1.75738,1.111074 -6.16433,3.916769 -11.87583,7.40716 -5.29758,3.23778 -8.95344,8.871474 -10.07592,12.313104 -1.18058,3.62111 -2.02037,7.40353 -1.97265,11.85146 0.0285,2.61222 0.16287,7.50312 2.11944,12.30844 1.84609,4.53455 5.47031,8.99233 7.0975,11.38669 2.83526,4.17301 5.67156,8.47726 6.66436,10.64131 1.37873,3.00748 3.96916,6.93514 6.02584,16.11784 0.51819,2.31085 6.26652,30.5924 3.55264,51.82159 -0.67743,5.30847 -9.83627,18.50805 -7.8268,29.77699 2.2346,12.52838 15.73607,23.60125 15.73607,23.60125 z"
         fill="none"
         stroke="#540"
         stroke-width="1.2"
         id="path25" />
      <path
         d="m 553.47825,197.01648 -6.49475,-8.997 h -47.43903 l -6.51913,8.997 6.51913,8.95706 h 47.43799 z"
         fill="#ffe24b"
         id="path27" />
      <path
         d="m 496.57984,193.2936 53.80462,0.29048 -3.97539,-5.62281 -47.01835,-0.097 -2.81088,5.42932 z"
         fill="#fff2ac"
         id="path29" />
      <path
         d="m 550.15981,200.86353 -53.80514,-0.29048 3.97539,5.62281 47.01835,0.097 2.8114,-5.42932 z"
         fill="#ddad00"
         id="path31" />
      <path
         d="m 553.47825,197.01648 -6.49475,-8.997 h -47.43903 l -6.51913,8.997 6.51913,8.95706 h 47.43799 z"
         fill="none"
         stroke="#540"
         stroke-width="1.2"
         id="path33" />
      <path
         d="m 516.81852,84.409094 c 0,0 -6.48065,4.860226 -9.25781,6.94336 -2.08314,1.56235 -5.64503,2.950651 -6.94336,5.207031 -2.96442,5.151305 -4.26607,10.824765 -1.73633,16.201175 1.49648,3.18021 6.87071,7.25483 9.25781,9.83593 3.21703,3.47846 7.5224,13.88673 7.52344,13.88672 z m 12.15039,6.365235 v 37.607421 c 0,0 2.4101,-5.93452 4.05078,-8.09961 1.5582,-2.0572 5.11683,-3.52567 6.36328,-5.78516 1.44616,-2.62466 2.31988,-6.89692 1.73633,-9.83593 -0.4409,-2.21903 -2.37017,-4.849567 -4.05078,-6.365237 -1.15309,-1.03949 -3.46493,-1.286373 -4.62891,-2.314453 -1.40726,-1.24231 -3.4707,-5.207031 -3.4707,-5.207031 z m -52.33984,42.720701 c -3.61333,0.0949 -7.5583,1.87227 -10.56836,3.875 -3.57339,2.37569 -7.40924,7.21506 -8.80664,11.27344 -0.998,2.89647 -0.87558,7.27791 0,10.21484 0.93679,3.1465 4.57812,8.10248 4.57812,8.10352 0,0 0.74881,-5.92365 1.41016,-8.80664 0.81386,-3.54693 2.60199,-8.45865 5.2832,-10.91992 2.83422,-2.60184 7.12661,-4.64559 10.91992,-5.28516 3.3353,-0.56124 7.99261,-0.47538 11.27344,0.35352 2.52041,0.63645 5.53148,2.51921 7.75,3.87304 1.6775,1.02445 5.2832,3.875 5.2832,3.875 0,0 -6.55395,-10.39453 -10.91992,-13.0332 -4.25704,-2.57331 -11.2313,-3.65311 -16.20312,-3.52344 z m 91.12304,1.04102 c -2.21487,0.0172 -5.23863,0.19046 -7.23242,1.10352 -4.52936,2.07483 -7.09765,5.95703 -7.09765,5.95703 0,0 8.94953,-1.476 12.68164,-0.70313 4.62844,0.95702 10.71085,3.7423 14.09179,7.04492 2.9084,2.84096 6.3418,11.97657 6.3418,11.97657 0,0 0.28279,-9.58717 -1.05859,-13.38672 -0.81023,-2.29372 -2.72479,-5.11753 -4.57813,-6.69336 -2.84512,-2.41978 -7.53782,-5.23225 -11.27148,-5.28516 -0.49044,-0.007 -1.13866,-0.0194 -1.87696,-0.0137 z m -48.61914,97.41406 c 0,0 -4.27832,6.32918 -4.99414,9.19141 -0.37917,1.51619 -0.75737,4.79409 -0.36523,6.30664 0.89685,3.45979 6.73633,10.56055 6.73633,10.56055 0,0 -0.7819,-6.97221 -1.00391,-9.27735 -0.48447,-5.01332 -0.37305,-16.78125 -0.37305,-16.78125 z"
         fill="#fff2ac"
         id="path35" />
      <path
         d="m 729.43981,62.145422 c -0.0685,0 -3.64149,12.072202 -9.44532,15.744141 -1.75686,1.110555 -6.16349,3.916256 -11.875,7.408203 -5.29757,3.237261 -8.95421,8.871783 -10.07617,12.314453 -1.18058,3.620071 -2.01986,7.403241 -1.97266,11.849611 0.0291,2.61222 0.16258,7.50327 2.11915,12.30859 1.45482,3.57149 3.97733,7.05301 5.79296,9.5586 -0.82581,-0.56349 -1.64598,-1.08718 -2.4375,-1.51368 -3.82236,-2.05928 -22.51207,-4.46841 -32.13671,3.81641 -3.68543,3.17242 -8.44867,9.53836 -10.03125,14.29492 -2.72845,8.19404 -0.56909,15.02597 -0.0156,17.13868 1.61266,6.15759 7.07372,13.47518 12.13476,17.33593 5.11446,3.90224 20.22461,6.9336 20.22461,6.9336 0,0 -4.21546,-7.3818 -4.62109,-10.97852 -0.29307,-2.58991 0.50464,-7.52583 1.73242,-9.82422 1.34034,-2.50796 5.24939,-3.34893 8.08984,-3.46875 2.88247,-0.1219 6.57989,2.74197 8.08985,5.20118 4.46764,7.27695 4.94942,23.29246 4.04687,31.7832 -0.71322,6.70535 -3.54861,11.20388 -6.35742,17.33398 -2.36583,5.16322 -11.55859,16.75977 -11.55859,16.75977 0,0 16.73235,-2.42019 21.96093,-6.93555 0.83172,-0.71793 1.707,-1.46747 2.57617,-2.31055 -1.66533,4.72278 -2.82822,9.84386 -1.97656,14.6211 2.23512,12.52786 15.73634,23.59961 15.73634,23.59961 0,0 13.50081,-11.07318 15.73437,-23.60156 0.86235,-4.84002 -0.3008,-10.03263 -1.95704,-14.80665 0.93261,0.92289 1.87588,1.72665 2.76954,2.49805 5.22857,4.51536 21.95897,6.93555 21.95897,6.93555 0,0 -9.19081,-11.59655 -11.55664,-16.75977 -2.8088,-6.1301 -5.64419,-10.62863 -6.35741,-17.33398 -0.90255,-8.49074 -0.42325,-24.50625 4.04492,-31.7832 1.50996,-2.45921 5.20789,-5.32308 8.08985,-5.20118 2.84097,0.11982 6.75042,0.96079 8.09179,3.46875 1.2283,2.29839 2.0255,7.23431 1.73243,9.82422 -0.40666,3.59672 -4.62305,10.97852 -4.62305,10.97852 0,0 15.11209,-3.03136 20.22656,-6.9336 5.06103,-3.86075 10.52262,-11.17834 12.13477,-17.33593 0.55398,-2.11271 2.71474,-8.94464 -0.0137,-17.13868 -1.58258,-4.75656 -6.34675,-11.1225 -10.03321,-14.29492 -9.62516,-8.28482 -28.31592,-5.87569 -32.13672,-3.81641 -0.79271,0.42711 -1.61434,0.95116 -2.4414,1.51563 1.81574,-2.50562 4.33921,-5.98789 5.79492,-9.56055 1.95657,-4.8048 2.09165,-9.69585 2.11914,-12.30859 0.0488,-4.44741 -0.79208,-8.23045 -1.97266,-11.851564 -1.12145,-3.44163 -4.77808,-9.07472 -10.07617,-12.3125 -5.7115,-3.490909 -10.32856,-6.297648 -12.08594,-7.408203 -5.80382,-3.670383 -9.37488,-15.744141 -9.44335,-15.744141 z"
         fill="#ffe24b"
         id="path37" />
      <path
         d="m 765.57368,235.18945 -4.40799,-0.0705 -12.21872,-4.11968 m 16.62671,4.19022 c 0,0 -11.40796,-7.58819 -15.3351,-11.8971 -2.80881,-3.0801 -5.6726,-7.94818 -7.51402,-11.68859 -3.17398,-6.44288 -8.07059,-22.54204 -8.07059,-22.54204 l -6.95692,-0.55554 -3.60658,0.54154 c -0.17117,0.10996 -5.06778,16.20757 -8.24124,22.65201 -1.84194,3.73989 -4.70573,8.60797 -7.51454,11.68806 -3.92714,4.30788 -15.30554,11.96661 -15.30554,11.96661 l 6.42577,-0.43623 9.68066,-3.22741 7.32281,-5.4147 4.56584,-11.7433 1.10713,-8.69884 14.86711,0.15816 0.31632,5.69379 6.01011,15.18343 3.00505,2.84689 2.61702,1.28304"
         fill="#ddad00"
         id="path39" />
      <path
         d="m 691.68004,148.50675 c -1.92998,0.0161 -3.86619,0.29762 -5.40234,0.79688 -4.47854,1.45653 -7.09339,3.88176 -9.23047,8.07812 -1.41296,2.77561 -2.93001,9.25549 -2.3086,12.3086 0.82371,4.05216 2.65377,9.58381 5.38477,12.6914 2.56034,2.9141 11.1543,6.53906 11.1543,6.53906 -5.67626,-10.56739 -6.3849,-21.66993 4.18945,-24.02734 l 5.81836,0.86133 4.95703,6.68164 3.01758,10.34375 v 6.67969 l -0.43164,15.94531 0.14258,0.4375 5.76953,-9.61523 c 0,0 0.32666,-8.76761 0.38476,-11.53907 0.0648,-3.11485 -1.57669,-12.35602 -2.30859,-15.38476 -1.18629,-4.91477 -3.02661,-9.48504 -6.15235,-13.46094 -2.07328,-2.63712 -6.47081,-5.37041 -9.61523,-6.53906 -1.51385,-0.56358 -3.43916,-0.81296 -5.36914,-0.79688 z m 75.75391,0.0176 c -1.92966,-0.0159 -3.85503,0.23356 -5.36914,0.79688 -3.14389,1.16917 -7.543,3.90194 -9.61524,6.53906 -3.12626,3.9759 -4.96802,8.54709 -6.1543,13.46289 -0.73138,3.02823 -2.37148,12.2694 -2.30664,15.38476 0.0586,2.77146 0.38477,11.53907 0.38477,11.53907 l 5.76953,9.61523 0.14258,-0.4375 -0.43164,-15.94531 v -6.67969 l 3.01758,-10.34375 4.95507,-6.68164 5.81836,-0.85937 c 10.85696,2.07445 9.02242,15.29393 4.18946,24.02343 0,0 8.59446,-3.62496 11.15429,-6.53906 2.72997,-3.10707 4.56002,-8.64017 5.38477,-12.69336 0.62141,-3.05312 -0.89407,-9.53051 -2.30859,-12.30664 -2.13656,-4.19584 -4.75297,-6.62159 -9.23047,-8.07812 -1.53616,-0.49978 -3.47073,-0.78099 -5.40039,-0.79688 z"
         fill="#ddad00"
         id="path41" />
      <path
         d="m 709.05798,202.04707 c 0.90255,-8.49074 0.42223,-24.50536 -4.04541,-31.78232 -1.50996,-2.4592 -5.20783,-5.32299 -8.0903,-5.20109 -2.84045,0.11982 -6.74944,0.95961 -8.08978,3.46757 -1.22778,2.29839 -2.02608,7.23443 -1.73301,9.82434 0.40563,3.59672 4.62222,10.98002 4.62222,10.98002 0,0 -15.11051,-3.03237 -20.22497,-6.93461 -5.06104,-3.86075 -10.52305,-11.17869 -12.13571,-17.33628 -0.55346,-2.11271 -2.71285,-8.94462 0.0156,-17.13866 1.58258,-4.75656 6.34588,-11.12267 10.03131,-14.29509 9.62464,-8.28482 28.31579,-5.87542 32.13815,-3.81614 5.05482,2.72374 11.21552,8.51564 13.29036,13.86819 1.61162,4.1559 4.96093,16.42128 5.77893,20.80282 1.67024,8.94098 2.15523,12.31414 2.88869,21.38065 0.50366,6.22295 1.89328,11.81048 0.57784,17.91361 -0.70856,3.28809 -1.59296,10.8353 -3.51477,15.80505 -1.93115,4.99568 -4.90439,7.41183 -7.4637,9.62101 -5.22858,4.51536 -21.95953,6.93462 -21.95953,6.93462 0,0 9.19203,-11.59522 11.55786,-16.75844 2.80881,-6.1301 5.64304,-10.6299 6.35626,-17.33525 z"
         fill="none"
         stroke="#540"
         stroke-width="1.2"
         id="path43" />
      <path
         d="m 750.03193,202.04707 c -0.90255,-8.49074 -0.42275,-24.50536 4.04541,-31.78232 1.50996,-2.4592 5.20783,-5.32299 8.08978,-5.20109 2.84097,0.11982 6.74996,0.95961 8.09134,3.46757 1.2283,2.29839 2.02607,7.23443 1.733,9.82434 -0.40666,3.59672 -4.62325,10.98002 -4.62325,10.98002 0,0 15.11051,-3.03237 20.22497,-6.93461 5.06104,-3.86075 10.52305,-11.17869 12.13519,-17.33628 0.55398,-2.11271 2.71441,-8.94462 -0.014,-17.13866 -1.58258,-4.75656 -6.34588,-11.12267 -10.03235,-14.29509 -9.62516,-8.28482 -28.31579,-5.87542 -32.13659,-3.81614 -5.05534,2.72374 -11.21604,8.51564 -13.29088,13.86819 -1.61163,4.1559 -4.96093,16.42128 -5.77997,20.80282 -1.66972,8.94098 -2.15523,12.31414 -2.88921,21.38065 -0.50314,6.22295 -1.89276,11.81048 -0.57732,17.91361 0.70856,3.28809 1.59296,10.8353 3.51477,15.80505 1.93115,4.99568 4.90439,7.41183 7.4637,9.62101 5.22858,4.51536 21.95953,6.93462 21.95953,6.93462 0,0 -9.19203,-11.59522 -11.55786,-16.75844 -2.80881,-6.1301 -5.64304,-10.6299 -6.35626,-17.33525 z"
         fill="none"
         stroke="#540"
         stroke-width="1.2"
         id="path45" />
      <path
         d="M 729.43883,265.11629 729.42171,63.790397"
         fill="none"
         stroke="#9e7500"
         stroke-width="1.2"
         id="path47" />
      <path
         d="m 745.51598,82.233313 c 0,0 6.10494,6.863029 10.10937,13.318359 2.15057,3.46601 2.12233,7.716908 2.16797,8.697268 0.19037,4.1865 -0.12786,6.12874 -1.26953,10.16015 -1.05661,3.73107 -3.29525,7.82139 -5.50391,11.00782 -2.4758,3.57027 -6.90293,7.56986 -8.89062,11.43164 -2.8503,5.53826 -4.77269,13.77664 -5.92578,19.89844 -1.41659,7.51401 -1.61145,17.77214 -2.11719,25.40234 -0.51301,7.74121 -1.8846,18.09326 -1.27148,25.82617 0.39059,4.9158 2.51776,11.8101 3.38867,16.08789 0.60171,2.95871 2.15522,6.74377 2.53906,9.73828 0.3714,2.89802 0.39733,6.84193 0,9.73633 -0.4492,3.26734 -1.70398,7.53904 -2.96289,10.58594 -1.3917,3.36278 -5.92969,10.58203 -5.92969,10.58203 l 11.00781,-12.27734 3.87914,-8.51662 -0.0188,-9.94405 -3.43654,-12.02175 -4.18177,-10.47648 -0.47448,-16.1954 1.69336,-16.51172 2.11719,-18.20508 4.65625,-14.39453 7.62109,-10.58593 6.34961,-11.00782 2.54102,-5.92578 1.26953,-10.58398 -1.69141,-10.162114 -5.36133,-8.589844 z M 696.4027,116.10245 c 0,0 0.7126,0.63672 0.92968,0.82618 l -0.11132,-0.51758 z m 0.92968,0.82618 0.86133,4.01562 3.88672,6.47852 3.88672,7.12695 6.47851,10.04102 4.21094,10.68945 2.26758,11.33594 1.94336,15.54883 0.97266,15.54687 V 212.288 l -3.56446,7.44922 -4.21093,11.33594 -0.70286,9.39453 1.66965,5.60938 c 0,0 0.25698,-6.56997 0.84571,-9.31446 0.81749,-3.8094 2.86343,-8.63082 4.23437,-12.27734 1.30248,-3.46653 3.88804,-7.80755 4.65625,-11.42969 1.68788,-7.95544 1.32176,-18.97739 0.84766,-27.0957 -0.35168,-6.0248 -2.11624,-13.92435 -2.96485,-19.90039 -0.66706,-4.69483 -1.91462,-12.00363 -3.38672,-16.51172 -1.57169,-4.80792 -4.14305,-10.94427 -6.77343,-15.26563 -2.23511,-3.67194 -5.26206,-7.28543 -8.04493,-10.56055 -1.8415,-2.16721 -5.82846,-5.67165 -7.11328,-6.79296 z"
         fill="#ddad00"
         id="path49" />
      <path
         d="m 729.4396,265.11551 c 0,0 13.49991,-11.07287 15.73451,-23.60125 2.00844,-11.26894 -6.93929,-24.46852 -7.61776,-29.77699 -2.71232,-21.22919 3.03601,-49.50919 3.55316,-51.82159 2.05823,-9.1827 4.64867,-13.11192 6.02739,-16.11784 0.99229,-2.16405 3.82911,-6.4683 6.66385,-10.64131 1.62771,-2.39436 5.25141,-6.85214 7.09853,-11.38669 1.95657,-4.80532 2.09144,-9.69622 2.11997,-12.30844 0.0477,-4.44793 -0.79259,-8.22983 -1.97265,-11.85146 -1.12145,-3.44163 -4.77835,-9.075324 -10.07488,-12.313104 -5.7115,-3.490391 -10.32957,-6.296086 -12.08643,-7.40716 -5.80487,-3.670383 -9.44569,-15.744366 -9.44569,-15.744366 0,0 -3.64134,12.072946 -9.44465,15.744366 -1.75738,1.111074 -6.16433,3.916769 -11.87583,7.40716 -5.29758,3.23778 -8.95344,8.871474 -10.07592,12.313104 -1.18058,3.62111 -2.02037,7.40353 -1.97265,11.85146 0.0285,2.61222 0.16287,7.50312 2.11944,12.30844 1.84609,4.53455 5.47031,8.99233 7.0975,11.38669 2.83526,4.17301 5.67156,8.47726 6.66436,10.64131 1.37873,3.00748 3.96916,6.93514 6.02584,16.11784 0.51819,2.31085 6.26652,30.5924 3.55264,51.82159 -0.67743,5.30847 -9.83627,18.50805 -7.8268,29.77699 2.2346,12.52838 15.73607,23.60125 15.73607,23.60125 z"
         fill="none"
         stroke="#540"
         stroke-width="1.2"
         id="path51" />
      <path
         d="m 759.77141,197.01648 -6.49475,-8.997 h -47.43903 l -6.51913,8.997 6.51913,8.95706 h 47.43799 z"
         fill="#ffe24b"
         id="path53" />
      <path
         d="m 702.873,193.2936 53.80462,0.29048 -3.97539,-5.62281 -47.01835,-0.097 -2.81088,5.42932 z"
         fill="#fff2ac"
         id="path55" />
      <path
         d="m 756.45297,200.86353 -53.80514,-0.29048 3.97539,5.62281 47.01835,0.097 2.8114,-5.42932 z"
         fill="#ddad00"
         id="path57" />
      <path
         d="m 759.77141,197.01648 -6.49475,-8.997 h -47.43903 l -6.51913,8.997 6.51913,8.95706 h 47.43799 z"
         fill="none"
         stroke="#540"
         stroke-width="1.2"
         id="path59" />
      <path
         d="m 723.11168,84.409094 c 0,0 -6.48065,4.860226 -9.25781,6.94336 -2.08314,1.56235 -5.64503,2.950651 -6.94336,5.207031 -2.96442,5.151305 -4.26607,10.824765 -1.73633,16.201175 1.49648,3.18021 6.87071,7.25483 9.25781,9.83593 3.21703,3.47846 7.5224,13.88673 7.52344,13.88672 z m 12.15039,6.365235 v 37.607421 c 0,0 2.4101,-5.93452 4.05078,-8.09961 1.5582,-2.0572 5.11683,-3.52567 6.36328,-5.78516 1.44616,-2.62466 2.31988,-6.89692 1.73633,-9.83593 -0.4409,-2.21903 -2.37017,-4.849567 -4.05078,-6.365237 -1.15309,-1.03949 -3.46493,-1.286373 -4.62891,-2.314453 -1.40726,-1.24231 -3.4707,-5.207031 -3.4707,-5.207031 z m -52.33984,42.720701 c -3.61333,0.0949 -7.5583,1.87227 -10.56836,3.875 -3.57339,2.37569 -7.40924,7.21506 -8.80664,11.27344 -0.998,2.89647 -0.87558,7.27791 0,10.21484 0.93679,3.1465 4.57812,8.10248 4.57812,8.10352 0,0 0.74881,-5.92365 1.41016,-8.80664 0.81386,-3.54693 2.60199,-8.45865 5.2832,-10.91992 2.83422,-2.60184 7.12661,-4.64559 10.91992,-5.28516 3.3353,-0.56124 7.99261,-0.47538 11.27344,0.35352 2.52041,0.63645 5.53148,2.51921 7.75,3.87304 1.6775,1.02445 5.2832,3.875 5.2832,3.875 0,0 -6.55395,-10.39453 -10.91992,-13.0332 -4.25704,-2.57331 -11.2313,-3.65311 -16.20312,-3.52344 z m 91.12304,1.04102 c -2.21487,0.0172 -5.23863,0.19046 -7.23242,1.10352 -4.52936,2.07483 -7.09765,5.95703 -7.09765,5.95703 0,0 8.94953,-1.476 12.68164,-0.70313 4.62844,0.95702 10.71085,3.7423 14.09179,7.04492 2.9084,2.84096 6.3418,11.97657 6.3418,11.97657 0,0 0.28279,-9.58717 -1.05859,-13.38672 -0.81023,-2.29372 -2.72479,-5.11753 -4.57813,-6.69336 -2.84512,-2.41978 -7.53782,-5.23225 -11.27148,-5.28516 -0.49044,-0.007 -1.13866,-0.0194 -1.87696,-0.0137 z m -48.61914,97.41406 c 0,0 -4.27832,6.32918 -4.99414,9.19141 -0.37917,1.51619 -0.75737,4.79409 -0.36523,6.30664 0.89685,3.45979 6.73633,10.56055 6.73633,10.56055 0,0 -0.7819,-6.97221 -1.00391,-9.27735 -0.48447,-5.01332 -0.37305,-16.78125 -0.37305,-16.78125 z"
         fill="#fff2ac"
         id="path61" />
      <g
         transform="translate(1.7036684)"
         id="g89">
        <path
           d="m 624.58958,269.69932 c -0.0685,0 -3.64149,12.07221 -9.44532,15.74414 -1.75686,1.11056 -6.16349,3.91626 -11.875,7.40821 -5.29757,3.23726 -8.95421,8.87178 -10.07617,12.31445 -1.18058,3.62007 -2.01986,7.40324 -1.97266,11.84961 0.0291,2.61222 0.16258,7.50327 2.11915,12.30859 1.45482,3.57149 3.97733,7.05302 5.79296,9.5586 -0.82581,-0.56349 -1.64598,-1.08717 -2.4375,-1.51367 -3.82236,-2.05928 -22.51207,-4.46842 -32.13671,3.8164 -3.68543,3.17242 -8.44867,9.53836 -10.03125,14.29492 -2.72845,8.19404 -0.56909,15.02597 -0.0156,17.13868 1.61266,6.15759 7.07372,13.47518 12.13476,17.33593 5.11446,3.90224 20.22461,6.9336 20.22461,6.9336 0,0 -4.21546,-7.3818 -4.62109,-10.97852 -0.29307,-2.58991 0.50464,-7.52583 1.73242,-9.82422 1.34034,-2.50796 5.24939,-3.34893 8.08984,-3.46875 2.88247,-0.1219 6.57989,2.74197 8.08985,5.20118 4.46764,7.27695 4.94942,23.29246 4.04687,31.7832 -0.71322,6.70535 -3.54861,11.20388 -6.35742,17.33398 -2.36583,5.16322 -11.55859,16.75977 -11.55859,16.75977 0,0 16.73235,-2.42019 21.96093,-6.93555 0.83172,-0.71793 1.707,-1.46747 2.57617,-2.31055 -1.66533,4.72278 -2.82822,9.84386 -1.97656,14.6211 2.23512,12.52786 15.73634,23.59961 15.73634,23.59961 0,0 13.50081,-11.07318 15.73437,-23.60156 0.86235,-4.84002 -0.3008,-10.03263 -1.95704,-14.80665 0.93261,0.92289 1.87588,1.72665 2.76954,2.49805 5.22857,4.51536 21.95897,6.93555 21.95897,6.93555 0,0 -9.19081,-11.59655 -11.55664,-16.75977 -2.8088,-6.1301 -5.64419,-10.62863 -6.35741,-17.33398 -0.90255,-8.49074 -0.42325,-24.50625 4.04492,-31.7832 1.50996,-2.45921 5.20789,-5.32308 8.08985,-5.20118 2.84097,0.11982 6.75042,0.96079 8.09179,3.46875 1.2283,2.29839 2.0255,7.23431 1.73243,9.82422 -0.40666,3.59672 -4.62305,10.97852 -4.62305,10.97852 0,0 15.11209,-3.03136 20.22656,-6.9336 5.06103,-3.86075 10.52262,-11.17834 12.13477,-17.33593 0.55398,-2.11271 2.71474,-8.94464 -0.0137,-17.13868 -1.58258,-4.75656 -6.34675,-11.1225 -10.03321,-14.29492 -9.62516,-8.28482 -28.31592,-5.87568 -32.13672,-3.8164 -0.79271,0.4271 -1.61434,0.95116 -2.4414,1.51562 1.81574,-2.50562 4.33921,-5.98789 5.79492,-9.56055 1.95657,-4.8048 2.09165,-9.69585 2.11914,-12.30859 0.0488,-4.44741 -0.79208,-8.23045 -1.97266,-11.85156 -1.12145,-3.44163 -4.77808,-9.07472 -10.07617,-12.3125 -5.7115,-3.49091 -10.32856,-6.29765 -12.08594,-7.4082 -5.80382,-3.67039 -9.37488,-15.74415 -9.44335,-15.74415 z"
           fill="#ffe24b"
           id="path63" />
        <path
           d="m 660.72345,442.74335 -4.40799,-0.0705 -12.21872,-4.11968 m 16.62671,4.19022 c 0,0 -11.40796,-7.58819 -15.3351,-11.8971 -2.80881,-3.0801 -5.6726,-7.94818 -7.51402,-11.68859 -3.17398,-6.44288 -8.07059,-22.54204 -8.07059,-22.54204 l -6.95692,-0.55554 -3.60658,0.54154 c -0.17117,0.10996 -5.06778,16.20757 -8.24124,22.65201 -1.84194,3.73989 -4.70573,8.60797 -7.51454,11.68806 -3.92714,4.30788 -15.30554,11.96661 -15.30554,11.96661 l 6.42577,-0.43623 9.68066,-3.22741 7.32281,-5.4147 4.56584,-11.7433 1.10713,-8.69884 14.86711,0.15816 0.31632,5.69379 6.01011,15.18343 3.00505,2.84689 2.61702,1.28304"
           fill="#ddad00"
           id="path65" />
        <path
           d="m 586.82981,356.06065 c -1.92998,0.0161 -3.86619,0.29762 -5.40234,0.79688 -4.47854,1.45653 -7.09339,3.88176 -9.23047,8.07812 -1.41296,2.77561 -2.93001,9.25549 -2.3086,12.3086 0.82371,4.05216 2.65377,9.58381 5.38477,12.6914 2.56034,2.9141 11.1543,6.53906 11.1543,6.53906 -5.67626,-10.56739 -6.3849,-21.66993 4.18945,-24.02734 l 5.81836,0.86133 4.95703,6.68164 3.01758,10.34375 v 6.67969 l -0.43164,15.94531 0.14258,0.4375 5.76953,-9.61523 c 0,0 0.32666,-8.76761 0.38476,-11.53907 0.0648,-3.11485 -1.57669,-12.35602 -2.30859,-15.38476 -1.18629,-4.91477 -3.02661,-9.48504 -6.15235,-13.46094 -2.07328,-2.63712 -6.47081,-5.37041 -9.61523,-6.53906 -1.51385,-0.56358 -3.43916,-0.81296 -5.36914,-0.79688 z m 75.75391,0.0176 c -1.92966,-0.0159 -3.85503,0.23356 -5.36914,0.79688 -3.14389,1.16917 -7.543,3.90194 -9.61524,6.53906 -3.12626,3.9759 -4.96802,8.54709 -6.1543,13.46289 -0.73138,3.02823 -2.37148,12.2694 -2.30664,15.38476 0.0586,2.77146 0.38477,11.53907 0.38477,11.53907 l 5.76953,9.61523 0.14258,-0.4375 -0.43164,-15.94531 v -6.67969 l 3.01758,-10.34375 4.95507,-6.68164 5.81836,-0.85937 c 10.85696,2.07445 9.02242,15.29393 4.18946,24.02343 0,0 8.59446,-3.62496 11.15429,-6.53906 2.72997,-3.10707 4.56002,-8.64017 5.38477,-12.69336 0.62141,-3.05312 -0.89407,-9.53051 -2.30859,-12.30664 -2.13656,-4.19584 -4.75297,-6.62159 -9.23047,-8.07812 -1.53616,-0.49978 -3.47073,-0.78099 -5.40039,-0.79688 z"
           fill="#ddad00"
           id="path67" />
        <path
           d="m 604.20775,409.60097 c 0.90255,-8.49074 0.42223,-24.50536 -4.04541,-31.78232 -1.50996,-2.4592 -5.20783,-5.32299 -8.0903,-5.20109 -2.84045,0.11982 -6.74944,0.95961 -8.08978,3.46757 -1.22778,2.29839 -2.02608,7.23443 -1.73301,9.82434 0.40563,3.59672 4.62222,10.98002 4.62222,10.98002 0,0 -15.11051,-3.03237 -20.22497,-6.93461 -5.06104,-3.86075 -10.52305,-11.17869 -12.13571,-17.33628 -0.55346,-2.11271 -2.71285,-8.94462 0.0156,-17.13866 1.58258,-4.75656 6.34588,-11.12267 10.03131,-14.29509 9.62464,-8.28482 28.31579,-5.87542 32.13815,-3.81614 5.05482,2.72374 11.21552,8.51564 13.29036,13.86819 1.61162,4.1559 4.96093,16.42128 5.77893,20.80282 1.67024,8.94098 2.15523,12.31414 2.88869,21.38065 0.50366,6.22295 1.89328,11.81048 0.57784,17.91361 -0.70856,3.28809 -1.59296,10.8353 -3.51477,15.80505 -1.93115,4.99568 -4.90439,7.41183 -7.4637,9.62101 -5.22858,4.51536 -21.95953,6.93462 -21.95953,6.93462 0,0 9.19203,-11.59522 11.55786,-16.75844 2.80881,-6.1301 5.64304,-10.6299 6.35626,-17.33525 z"
           fill="none"
           stroke="#540"
           stroke-width="1.2"
           id="path69" />
        <path
           d="m 645.1817,409.60097 c -0.90255,-8.49074 -0.42275,-24.50536 4.04541,-31.78232 1.50996,-2.4592 5.20783,-5.32299 8.08978,-5.20109 2.84097,0.11982 6.74996,0.95961 8.09134,3.46757 1.2283,2.29839 2.02607,7.23443 1.733,9.82434 -0.40666,3.59672 -4.62325,10.98002 -4.62325,10.98002 0,0 15.11051,-3.03237 20.22497,-6.93461 5.06104,-3.86075 10.52305,-11.17869 12.13519,-17.33628 0.55398,-2.11271 2.71441,-8.94462 -0.014,-17.13866 -1.58258,-4.75656 -6.34588,-11.12267 -10.03235,-14.29509 -9.62516,-8.28482 -28.31579,-5.87542 -32.13659,-3.81614 -5.05534,2.72374 -11.21604,8.51564 -13.29088,13.86819 -1.61163,4.1559 -4.96093,16.42128 -5.77997,20.80282 -1.66972,8.94098 -2.15523,12.31414 -2.88921,21.38065 -0.50314,6.22295 -1.89276,11.81048 -0.57732,17.91361 0.70856,3.28809 1.59296,10.8353 3.51477,15.80505 1.93115,4.99568 4.90439,7.41183 7.4637,9.62101 5.22858,4.51536 21.95953,6.93462 21.95953,6.93462 0,0 -9.19203,-11.59522 -11.55786,-16.75844 -2.80881,-6.1301 -5.64304,-10.6299 -6.35626,-17.33525 z"
           fill="none"
           stroke="#540"
           stroke-width="1.2"
           id="path71" />
        <path
           d="M 624.5886,472.67019 624.57148,271.3443"
           fill="none"
           stroke="#9e7500"
           stroke-width="1.2"
           id="path73" />
        <path
           d="m 640.66575,289.78721 c 0,0 6.10494,6.86303 10.10937,13.31836 2.15057,3.46601 2.12233,7.71691 2.16797,8.69727 0.19037,4.1865 -0.12786,6.12875 -1.26953,10.16016 -1.05661,3.73107 -3.29525,7.82138 -5.50391,11.00781 -2.4758,3.57027 -6.90293,7.56986 -8.89062,11.43164 -2.8503,5.53826 -4.77269,13.77664 -5.92578,19.89844 -1.41659,7.51401 -1.61145,17.77214 -2.11719,25.40234 -0.51301,7.74121 -1.8846,18.09326 -1.27148,25.82617 0.39059,4.9158 2.51776,11.8101 3.38867,16.08789 0.60171,2.95871 2.15522,6.74377 2.53906,9.73828 0.3714,2.89802 0.39733,6.84193 0,9.73633 -0.4492,3.26734 -1.70398,7.53904 -2.96289,10.58594 -1.3917,3.36278 -5.92969,10.58203 -5.92969,10.58203 l 11.00781,-12.27734 3.87914,-8.51662 -0.0188,-9.94405 -3.43654,-12.02175 -4.18177,-10.47648 -0.47448,-16.1954 1.69336,-16.51172 2.11719,-18.20508 4.65625,-14.39453 7.62109,-10.58593 6.34961,-11.00782 2.54102,-5.92578 1.26953,-10.58398 -1.69141,-10.16211 -5.36133,-8.58985 z m -49.11328,33.86915 c 0,0 0.7126,0.63671 0.92968,0.82617 l -0.11132,-0.51758 z m 0.92968,0.82617 0.86133,4.01562 3.88672,6.47852 3.88672,7.12695 6.47851,10.04102 4.21094,10.68945 2.26758,11.33594 1.94336,15.54883 0.97266,15.54687 v 14.57617 l -3.56446,7.44922 -4.21093,11.33594 -0.70286,9.39453 1.66965,5.60938 c 0,0 0.25698,-6.56997 0.84571,-9.31446 0.81749,-3.8094 2.86343,-8.63082 4.23437,-12.27734 1.30248,-3.46653 3.88804,-7.80755 4.65625,-11.42969 1.68788,-7.95544 1.32176,-18.97739 0.84766,-27.0957 -0.35168,-6.0248 -2.11624,-13.92435 -2.96485,-19.90039 -0.66706,-4.69483 -1.91462,-12.00363 -3.38672,-16.51172 -1.57169,-4.80792 -4.14305,-10.94427 -6.77343,-15.26563 -2.23511,-3.67194 -5.26206,-7.28542 -8.04493,-10.56054 -1.8415,-2.16722 -5.82846,-5.67166 -7.11328,-6.79297 z"
           fill="#ddad00"
           id="path75" />
        <path
           d="m 624.58937,472.66941 c 0,0 13.49991,-11.07287 15.73451,-23.60125 2.00844,-11.26894 -6.93929,-24.46852 -7.61776,-29.77699 -2.71232,-21.22919 3.03601,-49.50919 3.55316,-51.82159 2.05823,-9.1827 4.64867,-13.11192 6.02739,-16.11784 0.99229,-2.16405 3.82911,-6.4683 6.66385,-10.64131 1.62771,-2.39436 5.25141,-6.85214 7.09853,-11.38669 1.95657,-4.80532 2.09144,-9.69622 2.11997,-12.30844 0.0477,-4.44793 -0.79259,-8.22983 -1.97265,-11.85146 -1.12145,-3.44163 -4.77835,-9.07532 -10.07488,-12.3131 -5.7115,-3.4904 -10.32957,-6.29609 -12.08643,-7.40716 -5.80487,-3.67039 -9.44569,-15.74437 -9.44569,-15.74437 0,0 -3.64134,12.07295 -9.44465,15.74437 -1.75738,1.11107 -6.16433,3.91676 -11.87583,7.40716 -5.29758,3.23778 -8.95344,8.87147 -10.07592,12.3131 -1.18058,3.62111 -2.02037,7.40353 -1.97265,11.85146 0.0285,2.61222 0.16287,7.50312 2.11944,12.30844 1.84609,4.53455 5.47031,8.99233 7.0975,11.38669 2.83526,4.17301 5.67156,8.47726 6.66436,10.64131 1.37873,3.00748 3.96916,6.93514 6.02584,16.11784 0.51819,2.31085 6.26652,30.5924 3.55264,51.82159 -0.67743,5.30847 -9.83627,18.50805 -7.8268,29.77699 2.2346,12.52838 15.73607,23.60125 15.73607,23.60125 z"
           fill="none"
           stroke="#540"
           stroke-width="1.2"
           id="path77" />
        <path
           d="m 654.92118,404.57038 -6.49475,-8.997 H 600.9874 l -6.51913,8.997 6.51913,8.95706 h 47.43799 z"
           fill="#ffe24b"
           id="path79" />
        <path
           d="m 598.02277,400.8475 53.80462,0.29048 -3.97539,-5.62281 -47.01835,-0.097 -2.81088,5.42932 z"
           fill="#fff2ac"
           id="path81" />
        <path
           d="m 651.60274,408.41743 -53.80514,-0.29048 3.97539,5.62281 47.01835,0.097 2.8114,-5.42932 z"
           fill="#ddad00"
           id="path83" />
        <path
           d="m 654.92118,404.57038 -6.49475,-8.997 H 600.9874 l -6.51913,8.997 6.51913,8.95706 h 47.43799 z"
           fill="none"
           stroke="#540"
           stroke-width="1.2"
           id="path85" />
        <path
           d="m 618.26145,291.963 c 0,0 -6.48065,4.86022 -9.25781,6.94336 -2.08314,1.56235 -5.64503,2.95065 -6.94336,5.20703 -2.96442,5.1513 -4.26607,10.82476 -1.73633,16.20117 1.49648,3.18021 6.87071,7.25484 9.25781,9.83594 3.21703,3.47846 7.5224,13.88672 7.52344,13.88671 z m 12.15039,6.36523 v 37.60742 c 0,0 2.4101,-5.93452 4.05078,-8.09961 1.5582,-2.0572 5.11683,-3.52566 6.36328,-5.78515 1.44616,-2.62467 2.31988,-6.89693 1.73633,-9.83594 -0.4409,-2.21903 -2.37017,-4.84957 -4.05078,-6.36524 -1.15309,-1.03949 -3.46493,-1.28637 -4.62891,-2.31445 -1.40726,-1.24231 -3.4707,-5.20703 -3.4707,-5.20703 z m -52.33984,42.7207 c -3.61333,0.0949 -7.5583,1.87227 -10.56836,3.875 -3.57339,2.37569 -7.40924,7.21506 -8.80664,11.27344 -0.998,2.89647 -0.87558,7.27791 0,10.21484 0.93679,3.1465 4.57812,8.10248 4.57812,8.10352 0,0 0.74881,-5.92365 1.41016,-8.80664 0.81386,-3.54693 2.60199,-8.45865 5.2832,-10.91992 2.83422,-2.60184 7.12661,-4.64559 10.91992,-5.28516 3.3353,-0.56124 7.99261,-0.47538 11.27344,0.35352 2.52041,0.63645 5.53148,2.51921 7.75,3.87304 1.6775,1.02445 5.2832,3.875 5.2832,3.875 0,0 -6.55395,-10.39453 -10.91992,-13.0332 -4.25704,-2.57331 -11.2313,-3.65311 -16.20312,-3.52344 z m 91.12304,1.04102 c -2.21487,0.0172 -5.23863,0.19046 -7.23242,1.10352 -4.52936,2.07483 -7.09765,5.95703 -7.09765,5.95703 0,0 8.94953,-1.476 12.68164,-0.70313 4.62844,0.95702 10.71085,3.7423 14.09179,7.04492 2.9084,2.84096 6.3418,11.97657 6.3418,11.97657 0,0 0.28279,-9.58717 -1.05859,-13.38672 -0.81023,-2.29372 -2.72479,-5.11753 -4.57813,-6.69336 -2.84512,-2.41978 -7.53782,-5.23225 -11.27148,-5.28516 -0.49044,-0.007 -1.13866,-0.0194 -1.87696,-0.0137 z m -48.61914,97.41406 c 0,0 -4.27832,6.32918 -4.99414,9.19141 -0.37917,1.51619 -0.75737,4.79409 -0.36523,6.30664 0.89685,3.45979 6.73633,10.56055 6.73633,10.56055 0,0 -0.7819,-6.97221 -1.00391,-9.27735 -0.48447,-5.01332 -0.37305,-16.78125 -0.37305,-16.78125 z"
           fill="#fff2ac"
           id="path87" />
      </g>
    </g>
  </g>
</svg>
